<svg id="Capa_1" enable-background="new 0 0 465.882 465.882" height="512" viewBox="0 0 465.882 465.882" width="512" xmlns="http://www.w3.org/2000/svg"><path d="m232.941 0c-128.649 0-232.941 104.292-232.941 232.941 0 36.34 8.563 70.601 23.404 101.253l-23.404 131.688 131.689-23.404c30.651 14.841 64.912 23.404 101.253 23.404 128.65 0 232.941-104.292 232.941-232.941s-104.292-232.941-232.942-232.941zm-101.912 262.059c-8.04 0-14.559-6.519-14.559-14.559 0-8.042 6.519-14.559 14.559-14.559s14.559 6.517 14.559 14.559c0 8.04-6.519 14.559-14.559 14.559zm101.912 0c-8.04 0-14.559-6.519-14.559-14.559 0-8.042 6.519-14.559 14.559-14.559s14.559 6.517 14.559 14.559c0 8.04-6.519 14.559-14.559 14.559zm101.912 0c-8.04 0-14.559-6.519-14.559-14.559 0-8.042 6.519-14.559 14.559-14.559s14.559 6.517 14.559 14.559c0 8.04-6.519 14.559-14.559 14.559z"/></svg>