<svg id="Capa_1" enable-background="new 0 0 512 512" height="512" viewBox="0 0 512 512" width="512" xmlns="http://www.w3.org/2000/svg"><path d="m105.313 223.709-9.153 5.145c-24.093 13.54-42.622 34.324-53.311 59.099h312.707c-10.689-24.774-29.219-45.559-53.311-59.099l-9.154-5.145v-34.367h-187.778z"/><path d="m453.015 16.462c-15.333-10.616-35.449-16.462-56.641-16.462s-41.308 5.846-56.641 16.462c-11.849 8.203-20.105 18.919-23.943 30.635h-70.19v-25.118h-92.795v78.493h-16.222v58.87h125.239v-58.87h-16.222v-23.375h70.19c3.838 11.715 12.094 22.432 23.943 30.635 15.333 10.615 35.449 16.461 56.641 16.461s41.308-5.846 56.641-16.461c16.769-11.609 26.387-28.243 26.387-45.635 0-17.393-9.618-34.026-26.387-45.635z"/><path d="m34.158 317.952c-5.778 36.365 4.649 73.069 28.778 100.988l42.377 49.032v44.028h187.778v-44.027l42.377-49.032c24.13-27.919 34.556-64.623 28.778-100.988h-330.088z"/></svg>