<?xml version="1.0" encoding="iso-8859-1"?>
<!-- Generator: Adobe Illustrator 19.0.0, SVG Export Plug-In . SVG Version: 6.00 Build 0)  -->
<svg version="1.1" id="Capa_1" xmlns="http://www.w3.org/2000/svg" xmlns:xlink="http://www.w3.org/1999/xlink" x="0px" y="0px"
	 viewBox="0 0 512.024 512.024" style="enable-background:new 0 0 512.024 512.024;" xml:space="preserve">
<g>
	<g>
		<g>
			<path d="M106.226,195.625c-0.776,3.083-1.557,6.305-2.137,9.546c-5.79,27.138-5.787,55.193,0.009,82.33
				c3.562,15.961,3.66,32.499,0.289,48.501l19.667-19.666c12.781-12.811,31.429-17.823,48.91-13.147
				c17.481,4.676,31.136,18.33,35.814,35.811s-0.334,36.129-13.144,48.911l-19.527,19.526c15.914-3.32,32.353-3.215,48.224,0.309
				c27.084,5.707,55.059,5.728,82.152,0.063h0c3.325-0.601,6.536-1.447,9.753-2.26L106.226,195.625z"/>
			<path d="M182.703,329.263c-12.626-12.625-33.096-12.624-45.721,0.002L23.912,442.33l-0.065,0.073l-0.031,0.022L4.749,461.492
				c-6.131,6.325-6.318,16.316-0.429,22.866l22.875,22.857c6.431,6.411,16.837,6.411,23.268,0l132.241-132.232
				C195.33,362.357,195.329,341.887,182.703,329.263z"/>
			<path d="M472.491,279.195c-23.915-9.906-51.443-4.43-69.747,13.873c-18.304,18.304-23.779,45.831-13.873,69.747
				c9.906,23.915,33.243,39.508,59.128,39.508c35.329-0.041,63.959-28.671,64-64C512,312.437,496.406,289.101,472.491,279.195z"/>
			<path d="M388.312,281.543c25.606-26.951,66.119-33.351,98.786-15.605C526.496,186.43,518.371,99.24,465.58,46.457
				C430.982,11.859,381.848-4.316,327.41,0.988c-57.811,6.631-111.546,33.066-152.08,74.817
				c-22.47,22.254-40.702,48.413-53.804,77.196c-2.018,4.219-3.679,8.161-5.339,12.281c-1.474,3.617-2.634,7.091-3.851,10.591
				l223.87,223.789l0.649-0.213c3.248-1.084,6.612-2.257,9.868-3.583c4.33-1.665,8.411-3.438,12.482-5.205h0
				c6.562-3.028,12.653-6.282,18.574-9.665C358.386,349.281,362.705,308.494,388.312,281.543z"/>
		</g>
	</g>
</g>
<g>
</g>
<g>
</g>
<g>
</g>
<g>
</g>
<g>
</g>
<g>
</g>
<g>
</g>
<g>
</g>
<g>
</g>
<g>
</g>
<g>
</g>
<g>
</g>
<g>
</g>
<g>
</g>
<g>
</g>
</svg>
