<?xml version="1.0" encoding="iso-8859-1"?>
<!-- Generator: Adobe Illustrator 19.0.0, SVG Export Plug-In . SVG Version: 6.00 Build 0)  -->
<svg version="1.1" id="Layer_1" xmlns="http://www.w3.org/2000/svg" xmlns:xlink="http://www.w3.org/1999/xlink" x="0px" y="0px"
	 viewBox="0 0 512 512" style="enable-background:new 0 0 512 512;" xml:space="preserve">
<g>
	<g>
		<path d="M324.123,327.241c36.262-15.337,66.318-43.178,84.634-78.394c18.196-34.986,23.977-75.598,16.276-114.355L398.313,0
			H113.687l-26.72,134.493c-7.7,38.757-1.92,79.369,16.276,114.355c18.316,35.215,48.373,63.056,84.634,78.394
			c16.983,7.184,34.796,11.568,53.123,13.116V482H126v30h260v-30H271V340.357C289.327,338.809,307.139,334.425,324.123,327.241z
			 M122.022,112l16.291-82h235.374l16.291,82H122.022z"/>
	</g>
</g>
<g>
</g>
<g>
</g>
<g>
</g>
<g>
</g>
<g>
</g>
<g>
</g>
<g>
</g>
<g>
</g>
<g>
</g>
<g>
</g>
<g>
</g>
<g>
</g>
<g>
</g>
<g>
</g>
<g>
</g>
</svg>
